# xmcd
#
# Track frame offsets:
#	150
#	11399
#	23217
#	38230
#	50278
#	58885
#	70646
#	83904
#	92330
#	103403
#	116339
#	129572
#	142031
#	154545
#	164270
#	174091
#	185455
#	198282
#	215924
#	225269
#	235014
#	249778
#	263428
#	276543
#	289274
#	299669
#	311283
#	320530
#	337190
#	351975
#	362774
#	377796
#
# Disc length: 5212 seconds
#
# Revision: 1
# Processed by: cddbd v1.5.2PL0 Copyright (c) Steve Scherf et al.
# Submitted via: EasyCDDAExtractor 6.5.0.1
#
DISCID=d3145a20
DTITLE=Hank Snow - Snow on the Tracks
DYEAR=2008
DGENRE=Country
TTITLE0=Big Wheels
TTITLE1=The Last Ride
TTITLE2=The Streamlined Cannonball
TTITLE3=Ghost Trains
TTITLE4=Pan American
TTITLE5=Southbound
TTITLE6=Way out There
TTITLE7=Chattanooga Choo Choo
TTITLE8=The Wreck Of The Number Nine
TTITLE9=Lonesome Whistle
TTITLE10=The Crazy Enginee
TTITLE11=I'm Moving On
TTITLE12=The Golden Rocket
TTITLE13=The Wreck Of The Old 97
TTITLE14=One More Ride
TTITLE15=The Atlantic Coastal Line
TTITLE16=Silver Rails
TTITLE17=Come The Morning
TTITLE18=Dusquesne, Pennsylvania
TTITLE19=Fireball Mail
TTITLE20=Canadian Pacific
TTITLE21=I'm Moving In
TTITLE22=Folsom Prison Blues
TTITLE23=That Same Old Dotted Line
TTITLE24=Casey Jones Was His Name
TTITLE25=Wabash Cannonball
TTITLE26=The Train My Women's On
TTITLE27=The Engineer's Child
TTITLE28=Lonely Train
TTITLE29=Crack In The Box Car Door
TTITLE30=The City Of New Orleans
TTITLE31=The Texas Silver Zephyr
EXTD=
EXTT0=
EXTT1=
EXTT2=
EXTT3=
EXTT4=
EXTT5=
EXTT6=
EXTT7=
EXTT8=
EXTT9=
EXTT10=
EXTT11=
EXTT12=
EXTT13=
EXTT14=
EXTT15=
EXTT16=
EXTT17=
EXTT18=
EXTT19=
EXTT20=
EXTT21=
EXTT22=
EXTT23=
EXTT24=
EXTT25=
EXTT26=
EXTT27=
EXTT28=
EXTT29=
EXTT30=
EXTT31=
PLAYORDER=
